<svg id="Layer_1" data-name="Layer 1" xmlns="http://www.w3.org/2000/svg" viewBox="0 0 121.04 139.67"><defs><style>.cls-1{fill:#d41e1d;}.cls-2{fill:#fff;}</style></defs><title>Logo</title><polygon class="cls-1" points="28.95 22.54 97.95 28.54 101.95 105.54 59.24 105.54 50.77 119.48 48.83 105.54 37.95 105.54 28.95 22.54"/><path class="cls-2" d="M42.76,41.92c-.33-3-.49-4.56-.81-7.61l-1.32-.11c-.05-.47-.08-.71-.13-1.19l3.78.33.13,1.18-1.32-.11.8,7.59Z"/><path class="cls-2" d="M45.7,42.14c-.37-3.5-.55-5.25-.91-8.75l1.14.1c.15,1.49.23,2.24.38,3.74l1.41.11c-.15-1.49-.23-2.24-.38-3.73l1.14.1c.35,3.48.52,5.22.87,8.71l-1.13-.09c-.15-1.55-.23-2.33-.39-3.88l-1.4-.12.4,3.89Z"/><path class="cls-2" d="M50.42,42.5c-.35-3.48-.52-5.22-.86-8.7l3.4.3c0,.46.07.7.11,1.16l-2.26-.19.25,2.55,2,.16c0,.47.07.7.12,1.17l-2-.16.25,2.55,2.24.17.12,1.24Z"/><path class="cls-2" d="M44.42,68.36c.75-8.74,1.15-13.08,2-21.71l2.34.16c2.64,8.84,3.94,13.24,6.48,22l-2.74-.11c-.5-1.88-.76-2.82-1.27-4.71l-3.75-.17c-.13,1.87-.19,2.8-.32,4.67Zm6-7.36c-.86-3.19-1.3-4.78-2.17-8h-.05c-.22,3.14-.33,4.71-.54,7.85Z"/><path class="cls-2" d="M56.57,68.83c-.82-8.65-1.23-13-2.06-21.62l4.11.29a5.76,5.76,0,0,1,2.34.61,5.51,5.51,0,0,1,1.66,1.3,5.28,5.28,0,0,1,1,1.79,8.35,8.35,0,0,1,.44,2c0,.31,0,.46.07.77a8,8,0,0,1,0,1.47,3.31,3.31,0,0,1-.28,1,3.17,3.17,0,0,1-1.29,1.36,4,4,0,0,1,1.57,1.58,7.24,7.24,0,0,1,.69,2.73l.1,1.19a6.13,6.13,0,0,1-.85,4.27Q63,69.08,60.3,69Zm1-18.52.55,5.93,1.25.07q1.39.07,1.8-.66a4,4,0,0,0,.28-2.22,4.06,4.06,0,0,0-.72-2.2,2.66,2.66,0,0,0-2-.85Zm.8,8.65c.25,2.76.38,4.14.64,6.89l1.18.05a2.33,2.33,0,0,0,1.28-.21,1.47,1.47,0,0,0,.65-.72,2.93,2.93,0,0,0,.2-1.13c0-.44,0-.92-.08-1.44a9.89,9.89,0,0,0-.2-1.42,3.06,3.06,0,0,0-.42-1,1.89,1.89,0,0,0-.79-.66A3.64,3.64,0,0,0,59.61,59Z"/><path class="cls-2" d="M68,69.28C67.3,60.78,67,56.53,66.25,48l2.81.19c.29,3.63.44,5.44.72,9.07l3.44.19c-.27-3.61-.41-5.41-.68-9l2.81.2c.6,8.38.91,12.58,1.51,21l-2.73-.1c-.29-3.75-.43-5.63-.71-9.38L70,60c.29,3.77.44,5.66.74,9.42Z"/><path class="cls-2" d="M48.38,94.88,46,72.91l2.61.09c2.2,5.33,3.28,8,5.42,13.24h0l-1.3-13.11,2.72.09,2.1,21.67h-2.5C53,89.66,51.91,87,49.71,81.73h-.05c.55,5.26.82,7.89,1.37,13.15Z"/><path class="cls-2" d="M60,94.89c-.82-8.64-1.22-13-2-21.59l8.12.27c.09,1.15.14,1.72.24,2.87L61,76.29c.23,2.52.34,3.78.57,6.31l4.65.09.25,2.87-4.63-.06c.23,2.52.34,3.78.57,6.31l5.27,0c.1,1.22.16,1.83.26,3Z"/><path class="cls-2" d="M82,74.08c-.58,8.29-.85,12.45-1.37,20.81H78.12c-1.21-5.44-1.82-8.18-3.06-13.66h0c-.4,5.45-.6,8.18-1,13.66H71.55c-1.79-8.48-2.7-12.74-4.55-21.3l2.89.1c1,5.4,1.46,8.1,2.42,13.48h0c.42-5.37.63-8,1.08-13.37l2.08.07c1.29,5.5,1.93,8.24,3.19,13.7h.05c.13-5.44.19-8.16.33-13.58Z"/><path class="cls-2" d="M92.81,80.32l-2.7-.06c0-.27,0-.4,0-.67a3.61,3.61,0,0,0-.54-1.76A1.73,1.73,0,0,0,88,77.05a1.51,1.51,0,0,0-.89.21,1.58,1.58,0,0,0-.52.57,2.42,2.42,0,0,0-.24.84,6.73,6.73,0,0,0,0,1,10,10,0,0,0,.11,1,2,2,0,0,0,.24.73,1.57,1.57,0,0,0,.5.56,4.59,4.59,0,0,0,.86.49l2.11.93a5.63,5.63,0,0,1,1.5.91,4,4,0,0,1,.93,1.18,5.79,5.79,0,0,1,.48,1.57,17.61,17.61,0,0,1,.21,2,11.68,11.68,0,0,1-.1,2.4,5,5,0,0,1-.66,1.88,3.54,3.54,0,0,1-1.36,1.27,4.54,4.54,0,0,1-2.13.46,4.45,4.45,0,0,1-1.81-.38,4.62,4.62,0,0,1-1.5-1,5.93,5.93,0,0,1-1-1.56,5.59,5.59,0,0,1-.48-1.94c0-.44,0-.67-.07-1.11l2.67,0c0,.37,0,.55.06.93a2.72,2.72,0,0,0,.52,1.46,1.7,1.7,0,0,0,1.49.66,1.9,1.9,0,0,0,1-.21,1.36,1.36,0,0,0,.55-.61,2.24,2.24,0,0,0,.19-1c0-.38,0-.79,0-1.26a12.19,12.19,0,0,0-.13-1.33,2.46,2.46,0,0,0-.25-.84,1.72,1.72,0,0,0-.52-.52,6.64,6.64,0,0,0-.83-.45l-2-.9a4.9,4.9,0,0,1-2.46-2.12,8.34,8.34,0,0,1-.81-3.26,8,8,0,0,1,.15-2.21,4.8,4.8,0,0,1,.76-1.78,3.71,3.71,0,0,1,1.35-1.16,4.3,4.3,0,0,1,2-.39,4.53,4.53,0,0,1,1.87.47,5.62,5.62,0,0,1,1.52,1.11,5,5,0,0,1,1.39,3.2C92.76,79.46,92.78,79.75,92.81,80.32Z"/><path class="cls-2" d="M87,50.31l2-1.8c.21.38.31.57.53.94l-2.06,1.34Z"/><path class="cls-2" d="M88.66,54.85l2,.56-.43.87-1.61-.79Z"/><path class="cls-2" d="M88.12,52.24l4.71-.43c0,.56-.07.84-.12,1.4L88.35,53C88.25,52.69,88.21,52.54,88.12,52.24Z"/><path class="cls-2" d="M86.38,55.11a4.12,4.12,0,0,1-2.57,3.5c-.92,4.5-1.37,6.76-2.26,11.31l-2.37-.53c0-4.77-.05-7.15-.08-11.91a5.64,5.64,0,0,1-1.8-4.58l.57.45a10.83,10.83,0,0,0,3.87,1.77,9.29,9.29,0,0,0,4,.14C86,55.22,86.17,55.17,86.38,55.11Z"/><path class="cls-2" d="M86.4,54.43a4,4,0,0,1-.59.17,8.85,8.85,0,0,1-4-.1,10.31,10.31,0,0,1-3.86-1.82l-.53-.44a3.91,3.91,0,0,1,4.9-3A5.59,5.59,0,0,1,86.4,54.43Z"/></svg>